/* XPM */
static char * MAA_xpm[] = {
"32 32 109 2",
"  	c None",
". 	c #000000",
"+ 	c #1C0000",
"@ 	c #D70000",
"# 	c #460000",
"$ 	c #E50000",
"% 	c #0A0000",
"& 	c #920000",
"* 	c #C60000",
"= 	c #DC0000",
"- 	c #E00000",
"; 	c #4E0000",
"> 	c #BC0000",
", 	c #C10000",
"' 	c #8F0000",
") 	c #D80000",
"! 	c #3C0000",
"~ 	c #DA0000",
"{ 	c #C80000",
"] 	c #9C0000",
"^ 	c #4A0000",
"/ 	c #B30000",
"( 	c #380000",
"_ 	c #DD0000",
": 	c #8C0000",
"< 	c #720000",
"[ 	c #670000",
"} 	c #D30000",
"| 	c #1D1D1D",
"1 	c #560000",
"2 	c #CD0000",
"3 	c #F1F1F1",
"4 	c #450000",
"5 	c #6F0000",
"6 	c #B00000",
"7 	c #515151",
"8 	c #6B0000",
"9 	c #CB0000",
"0 	c #D8D8D8",
"a 	c #480000",
"b 	c #740000",
"c 	c #0A0A0A",
"d 	c #B7B7B7",
"e 	c #ADADAD",
"f 	c #840000",
"g 	c #FDFDFD",
"h 	c #BDBDBD",
"i 	c #B1B1B1",
"j 	c #620000",
"k 	c #7C0000",
"l 	c #444444",
"m 	c #EEEEEE",
"n 	c #9C9C9C",
"o 	c #580000",
"p 	c #D0D0D0",
"q 	c #F6F6F6",
"r 	c #A4A4A4",
"s 	c #5A0000",
"t 	c #750000",
"u 	c #0B0B0B",
"v 	c #767676",
"w 	c #8F8F8F",
"x 	c #484848",
"y 	c #EAEAEA",
"z 	c #FFFFFF",
"A 	c #A9A9A9",
"B 	c #434343",
"C 	c #4C4C4C",
"D 	c #454545",
"E 	c #494949",
"F 	c #424242",
"G 	c #636363",
"H 	c #8E8E8E",
"I 	c #AFAFAF",
"J 	c #595959",
"K 	c #C4C4C4",
"L 	c #676767",
"M 	c #9A9A9A",
"N 	c #090909",
"O 	c #8B8B8B",
"P 	c #8A8A8A",
"Q 	c #5B5B5B",
"R 	c #CECECE",
"S 	c #707070",
"T 	c #E5E5E5",
"U 	c #B4B4B4",
"V 	c #9E9E9E",
"W 	c #555555",
"X 	c #6B6B6B",
"Y 	c #DDDDDD",
"Z 	c #D1D1D1",
"` 	c #F8F8F8",
" .	c #898989",
"..	c #626262",
"+.	c #888888",
"@.	c #4E4E4E",
"#.	c #AE0000",
"$.	c #4B4B4B",
"%.	c #C6C6C6",
"&.	c #323232",
"*.	c #343434",
"=.	c #7B7B7B",
"-.	c #170000",
";.	c #BE0000",
">.	c #171717",
",.	c #6D6D6D",
"'.	c #505050",
").	c #6C6C6C",
"!.	c #640000",
"                                                                ",
"                                                                ",
"                                                                ",
"                      .               .                         ",
"                      .               .                         ",
"                    . + .           . @ .                       ",
"                    . # .           . $ .                       ",
"                  . % & * .       . = - * .                     ",
"                  . ; - > .       . @ = , .                     ",
"                . % ' ) . ! .   . ~ . { ] ^ .                   ",
"                . ; = / . ( .   . _ . : < [ .                   ",
"              . % ' } . | . 1 . 2 . 3 . 4 5 ; .                 ",
"              . ; = 6 . 7 . 8 > 9 . 0 . a < b .                 ",
"            . % ' } . c d e . f . g h i . j k ; .               ",
"            . ; = 6 . l m n . o . p q r . s t b .               ",
"          . % ' } . u v . w x . y z . A B . j k ; .             ",
"          . ; = 6 . C 0 . D E . i z . F G . s t b .             ",
"        . % ' } . c H .   . E . I .   . F J . j k ; .           ",
"        . ; = 6 . F K .   . D . G .   . L M . s t b .           ",
"      . % ' } . N O . . . . . . . . . . . P Q . j k ; .         ",
"      . ; = 6 . D R i Q S T U R V W X Y Z `  .. s t b .         ",
"    . % ' } . N ... . . . . . +.. . . . . . Q @.. j k ; .       ",
"    . ; = #.. $.%..         . &..         . *.=.. s b b .       ",
"  . -.k ;.. >.,..           . '..           . ).F . 1 !.4 .     ",
"  . . . . . . . .           . . .           . . . . . . . .     ",
"                                                                ",
"                                                                ",
"                                                                ",
"                                                                ",
"                                                                ",
"                                                                ",
"                                                                "};
